# xmcd
#
# Track frame offsets: 
#        150
#        24730
#        42785
#        60360
#        84813
#        100235
#        137282
#        157680
#        203450
#        221272
#        245635
#        271533
#        295822
#        317492
#        337797
#
# Disc length: 4801 seconds
#
# Revision: 0
# Processed by: cddbd v1.5.2PL0 Copyright (c) Steve Scherf et al.
# Submitted via: ExactAudioCopy v0.95a5
#
DISCID=af12bf0f
DTITLE=Various Artist - Akella Presents - Bluesw Rock - vol.12  CD1
DYEAR=2010
DGENRE=Blues
TTITLE0=Blue Charade - BUDDAHHEADS
TTITLE1=Never Mind - KENNY WAYNE SHEPHERD
TTITLE2=Victim Of the Game - WES JEANS
TTITLE3=A Light in the Dark - JULIAN SAS
TTITLE4=I'm Cryin' - JOHNNY GALE
TTITLE5=Full Moon on Main Street - ALBATROSS
TTITLE6=Falling For You - SONNY LANDRETH
TTITLE7=All I Want to Do Is Cry - RICK DERRINGER
TTITLE8=Which One - JEFF HEALEY
TTITLE9=Whirlwind - MIKE ONESKO
TTITLE10=When Life Has It's Way - HOWLING IGUANAS
TTITLE11=Get It White You Can - GOTTHARD
TTITLE12=Take Your Best Shot - SMOKIN' JOE KUBEK
TTITLE13=The More Things Chance - PAT TRAVERS
TTITLE14=Me and My Guitar - LESLIE WEST
EXTD=
EXTT0=
EXTT1=
EXTT2=
EXTT3=
EXTT4=
EXTT5=
EXTT6=
EXTT7=
EXTT8=
EXTT9=
EXTT10=
EXTT11=
EXTT12=
EXTT13=
EXTT14=
PLAYORDER=
